<?xml version="1.0" encoding="utf-8"?>
<!-- Generator: Adobe Illustrator 21.1.0, SVG Export Plug-In . SVG Version: 6.00 Build 0)  -->
<svg version="1.1" id="Layer_1" xmlns="http://www.w3.org/2000/svg" xmlns:xlink="http://www.w3.org/1999/xlink" x="0px" y="0px"
	 viewBox="0 0 555 193" style="enable-background:new 0 0 555 193;" xml:space="preserve">
<style type="text/css">
	.st0{fill:#fff;}
	.st1{enable-background:new; fill:#fff;}
</style>
<g id="XMLID_27_">
	<path id="XMLID_23_" class="st0" d="M165.9,59.6l12.1,0.1C267.2,16,423.1,0.5,420.3,60.9l17.5-0.2C450.7,2.1,302.7-9.8,165.9,59.6z
		"/>
	<g class="st1">
		<path class="st0" d="M48.3,88.9h12.1c-2.3,8.9-8.7,14.6-17,17.2c-3,0.9-6.3,1.3-9.9,1.3c-12.4,0-18.3-6.4-19.9-15
			c-0.6-3.1-0.5-6.7,0.2-10.6l0.6-3.4c2.1-11.8,8.8-20.3,18.5-23.9c3.2-1.2,6.7-1.8,10.3-1.8c14.2,0,20.8,7.2,20.2,18.8H51.4
			c0.7-6.4-2.2-9.8-9.7-9.8c-9.5,0-13.3,7-15,16.6L26,81.8c-1.6,9.1-0.8,16.6,9.1,16.6C42.6,98.5,46.7,95.3,48.3,88.9z"/>
	</g>
	<g class="st1">
		<path d="M88,73.1l-1.6,8.6c-0.9-0.1-2.5-0.3-3.5-0.3c-3.8,0-6.3,1.1-7.9,3.4L71,106.7h-9.8l5.9-33.3h9.3l-0.5,4
			c2.1-2.5,4.9-4.6,9-4.6C85.9,72.8,87.3,72.9,88,73.1z"/>
		<path d="M101.7,107.4c-8.8,0-13.7-4.1-15.2-9.9c-0.5-2-0.6-4-0.2-6.3l0.3-1.2c1.4-7.9,6.3-13.5,12.8-16c2.3-0.8,4.7-1.3,7.4-1.3
			c8.2,0,12.4,3.9,13.4,9.7c0.3,2,0.3,4.3-0.1,6.8l-0.7,3.8H96c-0.2,3.3,1.5,5.7,4.3,6.7c0.9,0.4,2.1,0.5,3.4,0.5
			c4,0,7.2-1.5,9.5-3.7l3.9,4.9C113.6,104.9,108.5,107.4,101.7,107.4z M105.4,79.9c-4.5,0-7.1,3.2-8.2,6.9h13.6l0.2-0.8
			C111.6,82.3,109.6,79.9,105.4,79.9z"/>
		<path d="M152.2,106.2l-0.1,0.5h-9.9c-0.3-0.8-0.4-1.8-0.4-3c-2.3,2.1-5.6,3.6-9.9,3.6c-5.6,0-9.2-2.5-10.5-6
			c-0.4-1.2-0.5-2.5-0.3-4c1.5-8.3,9.6-11,18.9-11h4.4l0.3-1.9c0.6-3.2-0.9-5.1-4.5-5.1c-3,0-5.5,1.4-5.9,4h-9.9
			c0.6-3.3,3-5.8,5.6-7.5c3-2,7.2-3.2,12-3.2c6.8,0,11,2.3,12.4,6.6c0.5,1.5,0.5,3.2,0.2,5.1L152,98.6
			C151.5,101.7,151.5,104.1,152.2,106.2z M135.2,100.5c3.2,0,5.8-1.4,7.3-3.2l1-5.7h-4c-4.2,0-7.8,1.4-8.4,5.1
			C130.6,99,132.5,100.5,135.2,100.5z"/>
		<path d="M160.8,97.5l3.2-17.6h-5.4l1.1-6.5h5.4l1.5-8.2h9.8l-1.5,8.2h6.3l-1.1,6.5h-6.3l-3,16.7c-0.4,2.5,0.5,3.5,3.2,3.5
			c1.1,0,2.1-0.1,3-0.3l-1.2,6.8c-1.9,0.4-3.7,0.8-6.1,0.8C162.5,107.4,159.6,104,160.8,97.5z"/>
		<path d="M178.9,106.7l5.9-33.3h9.8l-5.9,33.3H178.9z M185.7,64.7c0.5-2.8,3.2-4.6,6.3-4.6c3.3,0,5.2,1.7,4.7,4.6
			c-0.5,2.9-3,4.6-6.3,4.6C187.1,69.3,185.2,67.6,185.7,64.7z"/>
		<path d="M221.1,73.4h10.3l-18.3,33.3h-9.3l-6.6-33.3h10.3l2.8,22.5L221.1,73.4z"/>
		<path d="M244.7,107.4c-8.8,0-13.7-4.1-15.2-9.9c-0.5-2-0.6-4-0.2-6.3l0.3-1.2c1.4-7.9,6.3-13.5,12.8-16c2.3-0.8,4.7-1.3,7.4-1.3
			c8.2,0,12.4,3.9,13.4,9.7c0.3,2,0.3,4.3-0.1,6.8l-0.7,3.8h-23.4c-0.2,3.3,1.5,5.7,4.3,6.7c0.9,0.4,2.1,0.5,3.4,0.5
			c4,0,7.2-1.5,9.5-3.7l3.9,4.9C256.7,104.9,251.6,107.4,244.7,107.4z M248.5,79.9c-4.5,0-7.1,3.2-8.2,6.9h13.6l0.2-0.8
			C254.7,82.3,252.7,79.9,248.5,79.9z"/>
	</g>
	<g class="st1">
		<path class="st0" d="M294.8,106.7h-22.4l9.4-53.3h20.5c9.7,0,16.7,2.3,18.9,8.2c0.7,1.8,0.8,4,0.3,6.4c-1,5.8-5.2,9.6-10.3,11.2
			c5.5,1.3,8.8,5.3,7.6,11.8C316.9,102.1,307.4,106.7,294.8,106.7z M299.4,83.5h-10.8l-2.5,14.4h10.3c5.3,0,9.4-2.2,10.3-6.9
			C307.6,85.9,305.1,83.5,299.4,83.5z M300.7,62.3h-8.4L290,75.8h8.8c5.5-0.1,9.5-1.9,10.3-6.6C310.1,63.9,306.8,62.3,300.7,62.3z"
			/>
	</g>
	<g class="st1">
		<path d="M342.8,97l4.2-23.6h9.8l-5.9,33.3h-9.2l0.4-3.4c-2.6,2.4-6.1,4-10.8,4c-8.4,0-11.4-4.7-10-12.4l3.8-21.5h9.8L331.1,95
			c-0.6,3.3,0.7,5.2,4.3,5.2C338.9,100.2,341.3,99,342.8,97z"/>
		<path d="M377.1,97.5c0.4-2.1-1.3-2.8-3.2-3.4c-0.9-0.3-2.1-0.6-3.6-0.8c-4.9-1-9.5-2.8-11-6.4c-0.4-1.1-0.5-2.3-0.3-3.8
			c0.6-3.2,2.8-5.6,5.2-7.3c2.8-1.9,6.8-3.1,11.3-3.1c6.9,0,11.6,2.3,13.1,6.4c0.5,1.3,0.6,2.7,0.3,4.3h-9.8
			c0.5-2.9-1.4-4.4-4.9-4.4c-2.9,0-5.4,1.3-5.8,3.7c-0.3,2,1.4,2.7,3,3.2c2.4,0.8,6.1,1.3,8.4,2c3,0.9,5.4,2.5,6.4,4.9
			c0.5,1.1,0.6,2.6,0.3,4.2c-0.6,3.3-3,5.7-5.6,7.3c-3,1.8-7.1,3-11.7,3c-7.3,0-12-2.8-13.5-7.2c-0.4-1.3-0.6-2.7-0.3-4h9.3
			c-0.4,3.3,2.1,4.9,5.9,4.9C374,101,376.7,100,377.1,97.5z"/>
		<path d="M388.7,106.7l5.9-33.3h9.8l-5.9,33.3H388.7z M395.4,64.7c0.5-2.8,3.2-4.6,6.3-4.6c3.3,0,5.2,1.7,4.7,4.6
			c-0.5,2.9-3,4.6-6.3,4.6C396.9,69.3,394.9,67.6,395.4,64.7z"/>
		<path d="M416.7,83.2l-4.2,23.6h-9.8l5.9-33.3h9.2l-0.4,3.9c2.7-2.6,6.6-4.5,11.4-4.5c8.5,0,10.7,4.9,9.3,12.8l-3.7,21.2h-9.8
			l3.8-21.3c0.7-3.8-0.8-5.4-4.9-5.4C420.4,80,418.2,81.4,416.7,83.2z"/>
		<path d="M455.6,107.4c-8.8,0-13.7-4.1-15.2-9.9c-0.5-2-0.6-4-0.2-6.3l0.3-1.2c1.4-7.9,6.3-13.5,12.8-16c2.3-0.8,4.7-1.3,7.4-1.3
			c8.2,0,12.4,3.9,13.4,9.7c0.3,2,0.3,4.3-0.1,6.8l-0.7,3.8h-23.4c-0.2,3.3,1.5,5.7,4.3,6.7c0.9,0.4,2.1,0.5,3.4,0.5
			c4,0,7.2-1.5,9.5-3.7l3.9,4.9C467.5,104.9,462.4,107.4,455.6,107.4z M459.3,79.9c-4.5,0-7.1,3.2-8.2,6.9h13.6l0.2-0.8
			C465.5,82.3,463.5,79.9,459.3,79.9z"/>
		<path d="M496.3,97.5c0.4-2.1-1.3-2.8-3.2-3.4c-0.9-0.3-2.1-0.6-3.6-0.8c-4.9-1-9.5-2.8-11-6.4c-0.4-1.1-0.5-2.3-0.3-3.8
			c0.6-3.2,2.8-5.6,5.2-7.3c2.8-1.9,6.8-3.1,11.3-3.1c6.9,0,11.6,2.3,13.1,6.4c0.5,1.3,0.6,2.7,0.3,4.3h-9.8
			c0.5-2.9-1.4-4.4-4.9-4.4c-2.9,0-5.4,1.3-5.8,3.7c-0.3,2,1.4,2.7,3,3.2c2.4,0.8,6.1,1.3,8.4,2c3,0.9,5.4,2.5,6.4,4.9
			c0.5,1.1,0.6,2.6,0.3,4.2c-0.6,3.3-3,5.7-5.6,7.3c-3,1.8-7.1,3-11.7,3c-7.3,0-12-2.8-13.5-7.2c-0.4-1.3-0.6-2.7-0.3-4h9.3
			c-0.4,3.3,2.1,4.9,5.9,4.9C493.2,101,495.9,100,496.3,97.5z"/>
		<path d="M529.7,97.5c0.4-2.1-1.3-2.8-3.2-3.4c-0.9-0.3-2.1-0.6-3.6-0.8c-4.9-1-9.5-2.8-11-6.4c-0.4-1.1-0.5-2.3-0.3-3.8
			c0.6-3.2,2.8-5.6,5.2-7.3c2.8-1.9,6.8-3.1,11.3-3.1c6.9,0,11.6,2.3,13.1,6.4c0.5,1.3,0.6,2.7,0.3,4.3h-9.8
			c0.5-2.9-1.4-4.4-4.9-4.4c-2.9,0-5.4,1.3-5.8,3.7c-0.3,2,1.4,2.7,3,3.2c2.4,0.8,6.1,1.3,8.4,2c3,0.9,5.4,2.5,6.4,4.9
			c0.5,1.1,0.6,2.6,0.3,4.2c-0.6,3.3-3,5.7-5.6,7.3c-3,1.8-7.1,3-11.7,3c-7.3,0-12-2.8-13.5-7.2c-0.4-1.3-0.6-2.7-0.3-4h9.3
			c-0.4,3.3,2.1,4.9,5.9,4.9C526.6,101,529.3,100,529.7,97.5z"/>
	</g>
	<g class="st1">
		<path class="st0" d="M318.1,119.5h18.1c13,0,20,6.4,22.2,15.1c0.8,3.1,0.8,6.6,0.2,10.4l-0.5,2.4c-2.1,12.1-10,20.1-20.2,23.6
			c-3.5,1.2-7.2,1.8-11.2,1.8h-18L318.1,119.5z M334.6,128.4h-5.9l-6.2,35.5h5.8c10.3,0,15.7-6.7,17.5-16.6l0.5-2.5
			C347.9,135,344.9,128.4,334.6,128.4z"/>
	</g>
	<g class="st1">
		<path d="M374.9,173.5c-8.8,0-13.7-4.1-15.2-9.9c-0.5-2-0.6-4-0.2-6.3l0.3-1.2c1.4-7.9,6.3-13.5,12.8-16c2.3-0.8,4.7-1.3,7.4-1.3
			c8.2,0,12.4,3.9,13.4,9.7c0.3,2,0.3,4.3-0.1,6.8l-0.7,3.8h-23.4c-0.2,3.3,1.5,5.7,4.3,6.7c0.9,0.4,2.1,0.5,3.4,0.5
			c4,0,7.2-1.5,9.5-3.7l3.9,4.9C386.9,171,381.7,173.5,374.9,173.5z M378.6,146c-4.5,0-7.1,3.2-8.2,6.9H384l0.2-0.8
			C384.9,148.4,382.9,146,378.6,146z"/>
		<path d="M415.7,163.6c0.4-2.1-1.3-2.8-3.2-3.4c-0.9-0.3-2.1-0.6-3.6-0.8c-4.9-1-9.5-2.8-11-6.4c-0.4-1.1-0.5-2.3-0.3-3.8
			c0.6-3.2,2.8-5.6,5.2-7.3c2.8-1.9,6.8-3.1,11.3-3.1c6.9,0,11.6,2.3,13.1,6.4c0.5,1.3,0.6,2.7,0.3,4.3h-9.8
			c0.5-2.9-1.4-4.4-4.9-4.4c-2.9,0-5.4,1.3-5.8,3.7c-0.3,2,1.4,2.7,3,3.2c2.4,0.8,6.1,1.3,8.4,2c3,0.9,5.4,2.5,6.4,4.9
			c0.5,1.1,0.6,2.6,0.3,4.2c-0.6,3.3-3,5.7-5.6,7.3c-3,1.8-7.1,3-11.7,3c-7.3,0-12-2.8-13.5-7.2c-0.4-1.3-0.6-2.7-0.3-4h9.3
			c-0.4,3.3,2.1,4.9,5.9,4.9C412.6,167.1,415.3,166.1,415.7,163.6z"/>
		<path d="M427.3,172.8l5.9-33.3h9.8l-5.9,33.3H427.3z M434,130.8c0.5-2.8,3.2-4.6,6.3-4.6c3.3,0,5.2,1.7,4.7,4.6
			c-0.5,2.9-3,4.6-6.3,4.6C435.5,135.4,433.5,133.7,434,130.8z"/>
		<path d="M455.1,173.5c-5,0-8.2-2.1-10-4.8c-2-2.8-2.7-7.1-1.8-12.1l0.1-0.6c1.3-7.6,5.4-13.3,11.4-15.8c2-0.8,4.1-1.3,6.4-1.3
			c4.4,0,7.1,1.5,8.7,3.7l1-3.1h8.8l-5.7,32.2c-1.3,7.2-6.4,11.6-12.8,13.3c-2.3,0.6-4.7,0.9-7.3,0.9c-6,0-10.5-2.1-12.8-5.2
			l5.3-5.4c1.7,2.1,4.2,3.7,8.2,3.7c5.1,0,8.7-2.6,9.5-7.3l0.3-1.8C462.2,172,459.2,173.5,455.1,173.5z M462.5,146.1
			c-5.6,0-8.5,4.7-9.3,9.8l-0.1,0.6c-0.7,4.1-0.1,7.5,2.5,9c0.9,0.5,1.9,0.8,3.2,0.8c3.2,0,5.4-1.2,6.9-3.1l2.5-14
			C467.4,147.3,465.7,146.1,462.5,146.1z"/>
		<path d="M492,149.3l-4.2,23.6H478l5.9-33.3h9.2l-0.4,3.9c2.7-2.6,6.6-4.5,11.4-4.5c8.5,0,10.7,4.9,9.3,12.8l-3.7,21.2h-9.9
			l3.8-21.3c0.7-3.8-0.8-5.4-4.9-5.4C495.8,146.1,493.5,147.5,492,149.3z"/>
	</g>
	<path id="XMLID_25_" class="st0" d="M111.6,113.1l16.7-0.1c-15.5,57.5,114,51.6,175.4,29.9l-1.2,5.9
		C210,174.3,94.8,170.8,111.6,113.1z"/>
</g>
</svg>
